<?xml version="1.0" standalone="no"?>
<!DOCTYPE svg PUBLIC "-//W3C//DTD SVG 20010904//EN"
 "http://www.w3.org/TR/2001/REC-SVG-20010904/DTD/svg10.dtd">
<svg version="1.0" xmlns="http://www.w3.org/2000/svg"
 width="512.000000pt" height="512.000000pt" viewBox="0 0 512.000000 512.000000"
 preserveAspectRatio="xMidYMid meet">
<metadata>
Created by potrace 1.11, written by Peter Selinger 2001-2013
</metadata>
<g transform="translate(0.000000,512.000000) scale(0.100000,-0.100000)"
fill="#000000" stroke="none">
<path d="M311 4821 c-20 -13 -21 -2051 -1 -2076 11 -13 125 -15 1041 -15
l1029 0 9 23 c13 34 12 2049 -1 2065 -8 9 -228 12 -1037 12 -585 0 -1032 -4
-1040 -9z m980 -103 c1 -7 2 -110 4 -228 2 -264 0 -245 28 -257 24 -11 66 2
68 21 1 6 3 112 4 236 1 124 3 228 4 233 0 4 203 7 450 7 l448 0 0 -950 0
-950 -448 0 c-349 0 -448 3 -451 13 -2 6 -4 115 -3 241 l1 228 -24 16 c-22 14
-27 14 -51 1 l-26 -15 -1 -229 c-1 -127 -2 -236 -3 -242 -1 -10 -97 -13 -446
-13 l-445 0 0 68 c-1 94 -1 1804 0 1820 0 18 889 18 891 0z"/>
<path d="M2723 4808 c-4 -7 -8 -474 -8 -1037 0 -843 2 -1027 13 -1038 19 -19
2067 -20 2079 0 10 17 12 2048 1 2070 -8 16 -68 17 -1043 17 -816 0 -1035 -3
-1042 -12z m988 -140 c0 -29 0 -135 -1 -234 -1 -197 3 -214 54 -214 47 0 50
16 50 266 l0 234 447 0 c349 0 448 -3 451 -12 2 -7 4 -434 3 -948 l0 -935
-950 0 -950 0 0 935 c-1 514 1 941 3 948 3 9 102 12 448 12 l444 0 1 -52z"/>
<path d="M302 2387 c-16 -18 -16 -2055 -1 -2074 9 -11 193 -13 1045 -13 l1034
0 7 27 c8 35 9 2033 0 2056 -6 16 -76 17 -1040 17 -828 0 -1037 -3 -1045 -13z
m988 -325 c0 -254 1 -262 50 -262 49 0 50 8 50 262 l0 238 450 0 450 0 0 -280
c1 -154 1 -336 1 -405 0 -69 0 -145 -1 -170 l0 -45 -235 0 -235 0 -16 -25
c-15 -23 -15 -27 0 -50 l16 -25 235 0 235 0 0 -260 c1 -143 1 -316 1 -385 0
-69 0 -154 -1 -190 l0 -65 -450 0 -450 0 0 239 c0 204 -2 242 -16 255 -20 20
-48 20 -68 0 -14 -13 -16 -51 -16 -255 l0 -239 -448 0 -448 0 0 950 0 950 448
0 448 0 0 -238z"/>
<path d="M2740 2385 c-17 -21 -17 -2049 0 -2070 11 -13 151 -15 1041 -15 1006
0 1029 0 1039 19 14 27 14 2035 0 2062 -10 19 -33 19 -1039 19 -893 0 -1030
-2 -1041 -15z m1988 -1035 l0 -950 -451 2 -452 3 0 195 0 195 240 2 c212 3
241 5 253 20 16 23 15 48 -4 67 -14 14 -76 16 -538 16 -393 0 -525 -3 -534
-12 -16 -16 -15 -63 1 -77 9 -7 94 -12 248 -13 l234 -3 0 -197 0 -198 -447 0
-448 0 0 950 0 950 949 0 949 0 0 -950z"/>
<path d="M3527 1852 c-15 -15 -27 -32 -27 -37 0 -5 46 -56 102 -112 l103 -103
-103 -103 c-56 -56 -102 -107 -102 -113 0 -11 52 -64 62 -64 4 0 54 47 111
104 l104 105 104 -105 c57 -57 107 -104 111 -104 3 0 21 14 38 31 36 37 45 22
-93 160 l-89 89 106 106 c105 105 106 106 88 129 -42 57 -46 56 -161 -58
l-106 -106 -103 105 c-57 57 -107 104 -111 104 -4 0 -19 -13 -34 -28z"/>
</g>
</svg>
